<svg xmlns="http://www.w3.org/2000/svg" width="16" height="16" viewBox="0 0 16 16" fill="none">
  <path d="M8 1C4.13438 1 1 4.13438 1 8C1 11.8656 4.13438 15 8 15C11.8656 15 15 11.8656 15 8C15 4.13438 11.8656 1 8 1ZM8 14C4.69063 14 2 11.3094 2 8C2 4.69063 4.69063 2 8 2C11.3094 2 14 4.69063 14 8C14 11.3094 11.3094 14 8 14Z" fill="#666666"/>
  <path d="M10.5 5H5.5V6H10.5V5Z" fill="#666666"/>
  <path d="M10.5 9H5.5V10H10.5V9Z" fill="#666666"/>
  <path d="M6 5V11H7V5H6Z" fill="#666666"/>
  <path d="M9 5V11H10V5H9Z" fill="#666666"/>
</svg>
