<svg width="24" height="24" viewBox="0 0 24 24" fill="none" xmlns="http://www.w3.org/2000/svg">
<path fill-rule="evenodd" clip-rule="evenodd" d="M6.97034 2.46839C7.04001 2.39854 7.12277 2.34313 7.21389 2.30532C7.30501 2.26751 7.40269 2.24805 7.50134 2.24805C7.59999 2.24805 7.69767 2.26751 7.78879 2.30532C7.87991 2.34313 7.96267 2.39854 8.03234 2.46839L17.0323 11.4684C17.1022 11.5381 17.1576 11.6208 17.1954 11.7119C17.2332 11.8031 17.2527 11.9007 17.2527 11.9994C17.2527 12.098 17.2332 12.1957 17.1954 12.2868C17.1576 12.378 17.1022 12.4607 17.0323 12.5304L8.03234 21.5304C7.89151 21.6712 7.7005 21.7503 7.50134 21.7503C7.30218 21.7503 7.11117 21.6712 6.97034 21.5304C6.82951 21.3896 6.75039 21.1986 6.75039 20.9994C6.75039 20.8002 6.82951 20.6092 6.97034 20.4684L15.4408 11.9994L6.97034 3.53039C6.9005 3.46072 6.84508 3.37796 6.80727 3.28684C6.76946 3.19572 6.75 3.09804 6.75 2.99939C6.75 2.90074 6.76946 2.80305 6.80727 2.71194C6.84508 2.62082 6.9005 2.53806 6.97034 2.46839Z" fill="#0A0A0B"/>
</svg>
