<svg width="55" height="54" viewBox="0 0 55 54" fill="none" xmlns="http://www.w3.org/2000/svg">
<rect x="0.601562" width="54" height="54" rx="27" fill="#006BD3"/>
<path d="M42.6016 27.0919C42.6016 18.7567 35.8862 12 27.6034 12C19.317 12.0019 12.6016 18.7567 12.6016 27.0937C12.6016 34.6247 18.0871 40.8676 25.2562 42V31.4544H21.4505V27.0937H25.26V23.766C25.26 19.9846 27.5003 17.8961 30.9255 17.8961C32.5678 17.8961 34.2832 18.1905 34.2832 18.1905V21.9025H32.3916C30.5299 21.9025 29.9488 23.0667 29.9488 24.261V27.0919H34.107L33.4433 31.4526H29.9469V41.9981C37.116 40.8658 42.6016 34.6228 42.6016 27.0919Z" fill="#FDF7FF"/>
</svg>
