<svg width="55" height="54" viewBox="0 0 55 54" fill="none" xmlns="http://www.w3.org/2000/svg">
<rect x="0.203125" width="54" height="54" rx="27" fill="url(#paint0_linear_3510_9312)"/>
<g clip-path="url(#clip0_3510_9312)">
<path d="M27.2031 11.998C23.1325 11.998 22.6206 12.0168 21.0212 12.088C19.4219 12.163 18.3325 12.4143 17.3781 12.7855C16.3771 13.1621 15.4703 13.7527 14.7213 14.5162C13.9583 15.2656 13.3677 16.1722 12.9906 17.173C12.6194 18.1255 12.3663 19.2168 12.2931 20.8105C12.2219 22.4137 12.2031 22.9237 12.2031 26.9999C12.2031 31.0724 12.2219 31.5824 12.2931 33.1818C12.3681 34.7793 12.6194 35.8687 12.9906 36.823C13.375 37.8093 13.8869 38.6455 14.7213 39.4799C15.5538 40.3143 16.39 40.828 17.3763 41.2105C18.3325 41.5818 19.42 41.8349 21.0175 41.908C22.6188 41.9793 23.1287 41.998 27.2031 41.998C31.2775 41.998 31.7856 41.9793 33.3869 41.908C34.9825 41.833 36.0756 41.5818 37.03 41.2105C38.0304 40.8338 38.9365 40.2432 39.685 39.4799C40.5194 38.6455 41.0312 37.8093 41.4156 36.823C41.785 35.8687 42.0381 34.7793 42.1131 33.1818C42.1844 31.5824 42.2031 31.0724 42.2031 26.998C42.2031 22.9237 42.1844 22.4137 42.1131 20.8124C42.0381 19.2168 41.785 18.1255 41.4156 17.173C41.0386 16.1722 40.448 15.2656 39.685 14.5162C38.9362 13.7524 38.0294 13.1618 37.0281 12.7855C36.0719 12.4143 34.9806 12.1612 33.385 12.088C31.7838 12.0168 31.2756 11.998 27.1994 11.998H27.205H27.2031ZM25.8588 14.7018H27.205C31.21 14.7018 31.6844 14.7149 33.265 14.788C34.7275 14.8537 35.5225 15.0993 36.0513 15.3037C36.7506 15.5755 37.2512 15.9018 37.7762 16.4268C38.3013 16.9518 38.6256 17.4505 38.8975 18.1518C39.1038 18.6787 39.3475 19.4737 39.4131 20.9362C39.4862 22.5168 39.5012 22.9912 39.5012 26.9943C39.5012 30.9974 39.4862 31.4737 39.4131 33.0543C39.3475 34.5168 39.1019 35.3099 38.8975 35.8387C38.657 36.49 38.2732 37.0789 37.7744 37.5618C37.2494 38.0868 36.7506 38.4112 36.0494 38.683C35.5244 38.8893 34.7294 39.133 33.265 39.2005C31.6844 39.2718 31.21 39.2887 27.205 39.2887C23.2 39.2887 22.7238 39.2718 21.1431 39.2005C19.6806 39.133 18.8875 38.8893 18.3587 38.683C17.7072 38.4429 17.1177 38.0598 16.6337 37.5618C16.1345 37.0781 15.7501 36.4887 15.5087 35.8368C15.3044 35.3099 15.0588 34.5149 14.9931 33.0524C14.9219 31.4718 14.9069 30.9974 14.9069 26.9905C14.9069 22.9855 14.9219 22.513 14.9931 20.9324C15.0606 19.4699 15.3044 18.6749 15.5106 18.1462C15.7825 17.4468 16.1087 16.9462 16.6337 16.4212C17.1588 15.8962 17.6575 15.5718 18.3587 15.2999C18.8875 15.0937 19.6806 14.8499 21.1431 14.7824C22.5269 14.7187 23.0631 14.6999 25.8588 14.698V14.7018ZM35.2113 17.1918C34.9749 17.1918 34.7408 17.2384 34.5224 17.3288C34.304 17.4193 34.1056 17.5519 33.9385 17.719C33.7713 17.8862 33.6387 18.0846 33.5483 18.303C33.4578 18.5214 33.4112 18.7554 33.4112 18.9918C33.4112 19.2282 33.4578 19.4622 33.5483 19.6806C33.6387 19.899 33.7713 20.0974 33.9385 20.2646C34.1056 20.4317 34.304 20.5643 34.5224 20.6548C34.7408 20.7452 34.9749 20.7918 35.2113 20.7918C35.6886 20.7918 36.1465 20.6022 36.484 20.2646C36.8216 19.927 37.0112 19.4692 37.0112 18.9918C37.0112 18.5144 36.8216 18.0566 36.484 17.719C36.1465 17.3814 35.6886 17.1918 35.2113 17.1918ZM27.205 19.2955C26.1833 19.2796 25.1686 19.4671 24.22 19.8471C23.2714 20.227 22.4078 20.7919 21.6797 21.5088C20.9515 22.2258 20.3732 23.0804 19.9785 24.0229C19.5837 24.9655 19.3804 25.9771 19.3804 26.999C19.3804 28.0209 19.5837 29.0325 19.9785 29.9751C20.3732 30.9176 20.9515 31.7722 21.6797 32.4891C22.4078 33.206 23.2714 33.7709 24.22 34.1509C25.1686 34.5309 26.1833 34.7184 27.205 34.7024C29.2273 34.6709 31.156 33.8454 32.575 32.4041C33.9939 30.9629 34.7892 29.0215 34.7892 26.999C34.7892 24.9765 33.9939 23.0351 32.575 21.5938C31.156 20.1526 29.2273 19.3271 27.205 19.2955ZM27.205 21.9974C28.5312 21.9974 29.8032 22.5243 30.741 23.4621C31.6788 24.3999 32.2056 25.6718 32.2056 26.998C32.2056 28.3243 31.6788 29.5962 30.741 30.534C29.8032 31.4718 28.5312 31.9987 27.205 31.9987C25.8788 31.9987 24.6068 31.4718 23.669 30.534C22.7312 29.5962 22.2044 28.3243 22.2044 26.998C22.2044 25.6718 22.7312 24.3999 23.669 23.4621C24.6068 22.5243 25.8788 21.9974 27.205 21.9974Z" fill="#FDF7FF"/>
</g>
<defs>
<linearGradient id="paint0_linear_3510_9312" x1="40.4031" y1="6" x2="0.203124" y2="42.6" gradientUnits="userSpaceOnUse">
<stop stop-color="#AD308E"/>
<stop offset="1" stop-color="#E45F94"/>
</linearGradient>
<clipPath id="clip0_3510_9312">
<rect width="30" height="30" fill="white" transform="translate(12.2031 12)"/>
</clipPath>
</defs>
</svg>
