<svg width="54" height="54" viewBox="0 0 54 54" fill="none" xmlns="http://www.w3.org/2000/svg">
<rect width="54" height="54" rx="27" fill="#019756"/>
<g clip-path="url(#clip0_3510_9321)">
<path d="M37.5019 16.3594C36.1265 14.9713 34.4886 13.8708 32.6837 13.122C30.8787 12.3733 28.9428 11.9912 26.9887 11.9981C18.8006 11.9981 12.1275 18.6694 12.12 26.8594C12.12 29.4825 12.8063 32.0344 14.1019 34.2938L12 41.9981L19.8825 39.9319C22.0631 41.1186 24.5061 41.7406 26.9887 41.7413H26.9963C35.1863 41.7413 41.8575 35.07 41.865 26.8725C41.8669 24.9188 41.4822 22.9841 40.733 21.1798C39.9839 19.3755 38.887 17.7372 37.5019 16.3594ZM26.9887 39.225C24.7744 39.2258 22.6007 38.6299 20.6962 37.5L20.2462 37.23L15.57 38.4563L16.8187 33.8944L16.5262 33.4238C15.2884 31.4556 14.6337 29.1769 14.6381 26.8519C14.6381 20.0531 20.1825 14.5069 26.9963 14.5069C28.6195 14.504 30.2273 14.8224 31.7269 15.4438C33.2265 16.0652 34.5883 16.9773 35.7337 18.1275C36.8832 19.2732 37.7944 20.6352 38.4149 22.1348C39.0353 23.6345 39.3527 25.2421 39.3488 26.865C39.3413 33.6881 33.7969 39.225 26.9887 39.225ZM33.7669 29.9738C33.3975 29.7881 31.5731 28.89 31.23 28.7625C30.8888 28.6406 30.6394 28.5769 30.3956 28.9481C30.1462 29.3175 29.4338 30.1594 29.22 30.4013C29.0063 30.6506 28.785 30.6788 28.4137 30.495C28.0444 30.3075 26.8463 29.9175 25.4288 28.6481C24.3225 27.6638 23.5819 26.445 23.3606 26.0756C23.1469 25.7044 23.34 25.5056 23.5256 25.32C23.6887 25.155 23.895 24.885 24.0806 24.6713C24.2681 24.4575 24.33 24.3 24.4519 24.0525C24.5737 23.8013 24.5156 23.5875 24.4237 23.4019C24.33 23.2163 23.5894 21.3844 23.2762 20.6456C22.9762 19.9163 22.6706 20.0175 22.4419 20.0081C22.2281 19.995 21.9788 19.995 21.7294 19.995C21.5411 19.9997 21.3557 20.0433 21.1851 20.1229C21.0144 20.2026 20.862 20.3168 20.7375 20.4581C20.3962 20.8294 19.4419 21.7275 19.4419 23.5594C19.4419 25.3913 20.7731 27.1519 20.9606 27.4013C21.1444 27.6506 23.5744 31.3988 27.3037 33.0113C28.185 33.3956 28.8787 33.6225 29.4206 33.795C30.3113 34.08 31.1156 34.0369 31.7569 33.945C32.4694 33.8363 33.9525 33.045 34.2656 32.1769C34.5731 31.3069 34.5731 30.5644 34.4794 30.4088C34.3875 30.2513 34.1381 30.1594 33.7669 29.9738Z" fill="#FAFAFA"/>
</g>
<defs>
<clipPath id="clip0_3510_9321">
<rect width="30" height="30" fill="white" transform="translate(12 12)"/>
</clipPath>
</defs>
</svg>
