<svg width="55" height="54" viewBox="0 0 55 54" fill="none" xmlns="http://www.w3.org/2000/svg">
<rect x="0.796875" width="54" height="54" rx="27" fill="#E34150"/>
<g clip-path="url(#clip0_3510_9315)">
<path d="M27.8925 15.7461H28.0594C29.6006 15.7517 37.41 15.808 39.5156 16.3742C40.1522 16.547 40.7322 16.8839 41.1978 17.3511C41.6634 17.8183 41.9982 18.3996 42.1687 19.0367C42.3581 19.7492 42.4912 20.6923 42.5812 21.6655L42.6 21.8605L42.6412 22.348L42.6562 22.543C42.7781 24.2567 42.7931 25.8617 42.795 26.2123V26.353C42.7931 26.7167 42.7762 28.4305 42.6412 30.2155L42.6262 30.4123L42.6094 30.6073C42.5156 31.6798 42.3769 32.7448 42.1687 33.5286C41.9982 34.1657 41.6634 34.747 41.1978 35.2142C40.7322 35.6814 40.1522 36.0183 39.5156 36.1911C37.3406 36.7761 29.0737 36.8173 27.9281 36.8192H27.6619C27.0825 36.8192 24.6862 36.808 22.1737 36.7217L21.855 36.7105L21.6919 36.703L21.3712 36.6898L21.0506 36.6767C18.9694 36.5848 16.9875 36.4367 16.0744 36.1892C15.4381 36.0166 14.8582 35.68 14.3926 35.2131C13.927 34.7462 13.5921 34.1654 13.4212 33.5286C13.2131 32.7467 13.0744 31.6798 12.9806 30.6073L12.9656 30.4105L12.9506 30.2155C12.8576 28.945 12.8063 27.6718 12.7969 26.398L12.7969 26.1673C12.8006 25.7642 12.8156 24.3711 12.9169 22.8336L12.93 22.6405L12.9356 22.543L12.9506 22.348L12.9919 21.8605L13.0106 21.6655C13.1006 20.6923 13.2337 19.7473 13.4231 19.0367C13.5937 18.3996 13.9285 17.8183 14.3941 17.3511C14.8597 16.8839 15.4397 16.547 16.0762 16.3742C16.9894 16.1305 18.9712 15.9805 21.0525 15.8867L21.3712 15.8736L21.6937 15.8623L21.855 15.8567L22.1756 15.8436C23.9601 15.7862 25.7453 15.7543 27.5306 15.748L27.8925 15.7461ZM24.7969 21.7648V30.7986L32.5912 26.2836L24.7969 21.7648Z" fill="#FAFAFA"/>
</g>
<defs>
<clipPath id="clip0_3510_9315">
<rect width="30" height="30" fill="white" transform="translate(12.7969 12)"/>
</clipPath>
</defs>
</svg>
