<svg width="672" height="504" viewBox="0 0 672 504" fill="none" xmlns="http://www.w3.org/2000/svg">
<path d="M671.306 481.319H0V481.687H671.306V481.319Z" fill="#E0E0E0"/>
<path d="M576.949 500.515H538.832V500.882H576.949V500.515Z" fill="#E0E0E0"/>
<path d="M528.988 500.691H494.926V501.059H528.988V500.691Z" fill="#E0E0E0"/>
<path d="M371.393 492.182H325.543V492.549H371.393V492.182Z" fill="#E0E0E0"/>
<path d="M457.861 503.572H394.141V503.94H457.861V503.572Z" fill="#E0E0E0"/>
<path d="M191.779 491.755H130.086V492.122H191.779V491.755Z" fill="#E0E0E0"/>
<path d="M220.189 491.755H199.23V492.122H220.189V491.755Z" fill="#E0E0E0"/>
<path d="M137.846 498.369H83.8594V498.737H137.846V498.369Z" fill="#E0E0E0"/>
<path d="M318.198 415.767H58.9537C56.9228 415.763 54.9763 414.877 53.5414 413.303C52.1066 411.73 51.3008 409.597 51.3008 407.374V8.42936C51.3185 6.21883 52.1321 4.10521 53.565 2.54759C54.9979 0.989961 56.9343 0.114138 58.9537 0.110352L318.198 0.110352C320.232 0.110352 322.182 0.994558 323.619 2.56846C325.057 4.14235 325.865 6.27702 325.865 8.50285V407.374C325.865 409.6 325.057 411.735 323.619 413.309C322.182 414.882 320.232 415.767 318.198 415.767ZM58.9537 0.404309C57.0118 0.408203 55.1506 1.25541 53.7788 2.75998C52.4069 4.26455 51.6364 6.30353 51.6364 8.42936V407.374C51.6364 409.5 52.4069 411.539 53.7788 413.044C55.1506 414.548 57.0118 415.395 58.9537 415.399H318.198C320.14 415.391 322.001 414.543 323.374 413.04C324.747 411.537 325.522 409.5 325.529 407.374V8.42936C325.522 6.30337 324.747 4.26666 323.374 2.76335C322.001 1.26003 320.14 0.412054 318.198 0.404309H58.9537Z" fill="#E0E0E0"/>
<path d="M608.62 415.767H349.362C347.331 415.759 345.385 414.872 343.949 413.3C342.512 411.728 341.702 409.598 341.695 407.374V8.42936C341.717 6.21749 342.533 4.10388 343.968 2.54666C345.403 0.989447 347.341 0.114097 349.362 0.110352L608.62 0.110352C610.637 0.118001 612.57 0.995531 614 2.55274C615.43 4.10995 616.242 6.22137 616.259 8.42936V407.374C616.261 408.474 616.065 409.564 615.682 410.581C615.299 411.599 614.737 412.523 614.027 413.302C613.318 414.082 612.475 414.7 611.547 415.123C610.62 415.546 609.625 415.765 608.62 415.767ZM349.362 0.404309C347.42 0.412054 345.559 1.26003 344.186 2.76335C342.813 4.26666 342.038 6.30337 342.031 8.42936V407.374C342.038 409.5 342.813 411.537 344.186 413.04C345.559 414.543 347.42 415.391 349.362 415.399H608.62C610.562 415.391 612.422 414.543 613.796 413.04C615.169 411.537 615.943 409.5 615.95 407.374V8.42936C615.943 6.30337 615.169 4.26666 613.796 2.76335C612.422 1.26003 610.562 0.412054 608.62 0.404309H349.362Z" fill="#E0E0E0"/>
<path d="M440.86 35.7822H95.8086V226.208H440.86V35.7822Z" fill="#E0E0E0"/>
<path d="M445.36 35.7822H100.309V226.208H445.36V35.7822Z" fill="#EFEFEF"/>
<path d="M437.29 44.7041H108.391V217.257H437.29V44.7041Z" fill="#F4F4F4"/>
<path d="M132.742 217.273L221.945 44.7197H263.741L174.551 217.273H132.742Z" fill="white"/>
<path d="M188.582 217.273L277.785 44.7197H319.581L230.391 217.273H188.582Z" fill="white"/>
<path d="M304.773 217.273L393.963 44.7197H411.175L321.986 217.273H304.773Z" fill="white"/>
<path d="M330.219 44.7041H318.055V217.257H330.219V44.7041Z" fill="#E0E0E0"/>
<path d="M218.645 44.7041H206.48V217.257H218.645V44.7041Z" fill="#E0E0E0"/>
<path d="M334.484 38.0752H322.32V222.945H334.484V38.0752Z" fill="#F4F4F4"/>
<path d="M222.914 38.0752H210.75V222.945H222.914V38.0752Z" fill="#F4F4F4"/>
<path d="M437.287 44.7041H433.891V217.257H437.287V44.7041Z" fill="#E0E0E0"/>
<path d="M526.089 282.426C526.089 282.426 501.466 235.966 535.622 198.986C535.622 198.986 544.536 205.336 544.402 213.89C544.268 222.444 534.856 224.605 536.87 231.748C538.884 238.891 547.786 245.887 541.959 251.781C536.132 257.675 542.885 262.937 542.496 270.153C542.106 277.37 526.089 282.426 526.089 282.426Z" fill="#E0E0E0"/>
<path d="M529.955 290.027C529.955 290.027 539.931 237.438 496.86 214.127C496.86 214.127 490.241 223.24 492.832 231.309C495.423 239.378 504.983 238.187 505.117 245.654C505.251 253.12 498.833 262.836 506.07 266.422C513.307 270.008 508.393 277.328 510.85 284.06C513.307 290.791 529.955 290.027 529.955 290.027Z" fill="#EBEBEB"/>
<path d="M508.031 276.666C508.031 276.666 508.461 298.595 525.029 298.595C541.596 298.595 542.04 276.666 542.04 276.666H508.031Z" fill="#F4F4F4"/>
<path d="M393.062 281.517C393.062 281.517 393.626 298.596 415.417 298.596C437.208 298.596 437.785 281.517 437.785 281.517H393.062Z" fill="#EBEBEB"/>
<path d="M443.637 285.749C443.637 285.749 444.066 298.595 460.446 298.595C476.826 298.595 477.242 285.749 477.242 285.749H443.637Z" fill="#EBEBEB"/>
<path d="M408.407 309.251H371.727V470.296H408.407V309.251Z" fill="#EBEBEB"/>
<path d="M559.642 470.281H378.766V481.319H559.642V470.281Z" fill="#EBEBEB"/>
<path d="M566.687 309.236H408.406V470.281H566.687V309.236Z" fill="#F4F4F4"/>
<path d="M552.269 324.815H422.828V381.931H552.269V324.815Z" fill="#EBEBEB"/>
<path d="M552.269 392.338H422.828V449.454H552.269V392.338Z" fill="#EBEBEB"/>
<path d="M502.14 331.077H473.018C472.07 331.077 471.16 330.666 470.488 329.933C469.816 329.2 469.437 328.206 469.434 327.167C469.441 326.129 469.821 325.135 470.491 324.401C471.162 323.667 472.07 323.251 473.018 323.243H502.14C503.088 323.251 503.996 323.667 504.667 324.401C505.337 325.135 505.717 326.129 505.724 327.167C505.721 328.206 505.342 329.2 504.67 329.933C503.998 330.666 503.088 331.077 502.14 331.077Z" fill="#F4F4F4"/>
<path d="M502.14 398.6H473.018C472.07 398.6 471.16 398.188 470.488 397.455C469.816 396.723 469.437 395.728 469.434 394.69C469.441 393.652 469.821 392.658 470.491 391.924C471.162 391.189 472.07 390.773 473.018 390.766H502.14C503.088 390.773 503.996 391.189 504.667 391.924C505.337 392.658 505.717 393.652 505.724 394.69C505.721 395.728 505.342 396.723 504.67 397.455C503.998 398.188 503.088 398.6 502.14 398.6Z" fill="#F4F4F4"/>
<path d="M571.562 298.595H408.395V309.251H571.562V298.595Z" fill="#EBEBEB"/>
<path d="M408.395 298.581H366.586V309.237H408.395V298.581Z" fill="#E0E0E0"/>
<path d="M563.385 62.5908H483.93V162.801H563.385V62.5908Z" fill="#EBEBEB"/>
<path d="M572.406 62.5908H486.305V162.801H572.406V62.5908Z" fill="#F4F4F4"/>
<path d="M565.198 70.4834H493.516V154.893H565.198V70.4834Z" fill="white"/>
<path d="M541.502 90.9434H517.214C513.722 90.9434 510.891 94.0428 510.891 97.8661V127.512C510.891 131.335 513.722 134.434 517.214 134.434H541.502C544.995 134.434 547.826 131.335 547.826 127.512V97.8661C547.826 94.0428 544.995 90.9434 541.502 90.9434Z" fill="#F4F4F4"/>
<path d="M361.286 388.018H352.062V481.32H361.286V388.018Z" fill="#E0E0E0"/>
<path opacity="0.5" d="M361.283 388.018H356.664V481.32H361.283V388.018Z" fill="#F4F4F4"/>
<path d="M320.884 414.149H314.547C315.241 413.506 315.799 412.705 316.182 411.801C316.565 410.897 316.763 409.913 316.762 408.917H241.67C241.671 409.914 241.871 410.899 242.256 411.803C242.641 412.707 243.202 413.507 243.899 414.149H237.642C235.399 414.149 233.247 415.125 231.661 416.862C230.075 418.598 229.184 420.953 229.184 423.409V450.409C229.184 452.865 230.075 455.22 231.661 456.957C233.247 458.693 235.399 459.669 237.642 459.669H320.884C323.127 459.669 325.279 458.693 326.865 456.957C328.451 455.22 329.342 452.865 329.342 450.409V423.409C329.342 420.953 328.451 418.598 326.865 416.862C325.279 415.125 323.127 414.149 320.884 414.149Z" fill="#F4F4F4"/>
<path d="M251.43 434.095H200.935C197.791 434.095 195.242 436.885 195.242 440.327V453.437C195.242 456.879 197.791 459.669 200.935 459.669H251.43C254.574 459.669 257.123 456.879 257.123 453.437V440.327C257.123 436.885 254.574 434.095 251.43 434.095Z" fill="#EBEBEB"/>
<path d="M255.217 428.451H197.149C196.096 428.451 195.242 429.386 195.242 430.538V432.919C195.242 434.072 196.096 435.006 197.149 435.006H255.217C256.27 435.006 257.123 434.072 257.123 432.919V430.538C257.123 429.386 256.27 428.451 255.217 428.451Z" fill="#E0E0E0"/>
<path d="M262.828 346.349C262.828 346.349 263.701 377.214 296.729 377.214C329.757 377.214 330.63 346.349 330.63 346.349H262.828Z" fill="#EBEBEB"/>
<path d="M144.723 377.229H103.531V388.017H144.723V377.229Z" fill="#E0E0E0"/>
<path d="M393.252 377.229H144.734V388.017H393.252V377.229Z" fill="#F4F4F4"/>
<path d="M144.723 459.669H103.531V470.457H144.723V459.669Z" fill="#E0E0E0"/>
<path d="M112.763 388.018H103.539V481.32H112.763V388.018Z" fill="#E0E0E0"/>
<path opacity="0.5" d="M112.763 388.018H108.145V481.32H112.763V388.018Z" fill="#F4F4F4"/>
<path d="M149.337 388.018H140.113V481.32H149.337V388.018Z" fill="#F4F4F4"/>
<path d="M144.732 388.018H140.113V481.32H144.732V388.018Z" fill="#E0E0E0"/>
<path d="M393.235 388.018H384.012V481.32H393.235V388.018Z" fill="#F4F4F4"/>
<path d="M388.63 388.018H384.012V481.32H388.63V388.018Z" fill="#E0E0E0"/>
<path d="M393.252 459.669H144.734V470.457H393.252V459.669Z" fill="#F4F4F4"/>
<path d="M211.005 370.865H160.898V377.229H211.005V370.865Z" fill="#E0E0E0"/>
<path d="M228.955 370.85H211.004V377.214H228.955V370.85Z" fill="#EBEBEB"/>
<path d="M335.319 268.752C479.089 268.752 595.638 261.302 595.638 252.114C595.638 242.925 479.089 235.476 335.319 235.476C191.549 235.476 75 242.925 75 252.114C75 261.302 191.549 268.752 335.319 268.752Z" fill="#F5F5F5"/>
<path d="M265.492 67.6058C265.586 85.0228 254.187 84.8464 254.415 79.3641C254.643 73.8818 251.824 61.0064 254.415 62.2557C257.006 63.5051 265.451 59.9041 265.492 67.6058Z" fill="#1A2E35"/>
<path d="M258.322 99.1481C259.893 99.0158 263.048 100.618 263.33 105.16C263.404 106.479 263.756 107.762 264.359 108.907C264.963 110.052 265.801 111.029 266.808 111.759C266.808 111.759 261.585 112.45 258.161 109.481C255.368 107.085 254.133 101.838 255.597 100.662C256.401 99.9577 257.328 99.4424 258.322 99.1481Z" fill="#1A2E35"/>
<path d="M256.265 86.7725C258.95 89.374 261.407 96.2526 255.352 99.5155C249.296 102.778 239.777 95.1062 239.777 95.1062L250.236 89.8002L256.265 86.7725Z" fill="#1A2E35"/>
<path d="M259.244 99.7804C259.097 98.8279 258.854 97.8962 258.519 97.0025C258.494 96.928 258.455 96.8598 258.405 96.8017C258.356 96.7436 258.296 96.6968 258.23 96.664C258.164 96.6312 258.093 96.6131 258.02 96.6106C257.947 96.6082 257.875 96.6215 257.807 96.6498H257.7L253.981 99.3689C253.921 99.4132 253.869 99.4701 253.829 99.5362C253.79 99.6023 253.762 99.6764 253.748 99.7542C253.735 99.832 253.735 99.9121 253.75 99.9897C253.764 100.067 253.793 100.141 253.833 100.207C253.875 100.268 253.925 100.322 253.981 100.368C254.518 100.795 255.094 101.16 255.699 101.456C256.572 101.838 258.385 100.75 259.002 100.28C259.079 100.228 259.143 100.154 259.185 100.066C259.228 99.9784 259.248 99.8797 259.244 99.7804Z" fill="#407BFF"/>
<path opacity="0.3" d="M259.244 99.7804C259.097 98.8279 258.854 97.8962 258.519 97.0025C258.494 96.928 258.455 96.8598 258.405 96.8017C258.356 96.7436 258.296 96.6968 258.23 96.664C258.164 96.6312 258.093 96.6131 258.02 96.6106C257.947 96.6082 257.875 96.6215 257.807 96.6498H257.7L253.981 99.3689C253.921 99.4132 253.869 99.4701 253.829 99.5362C253.79 99.6023 253.762 99.6764 253.748 99.7542C253.735 99.832 253.735 99.9121 253.75 99.9897C253.764 100.067 253.793 100.141 253.833 100.207C253.875 100.268 253.925 100.322 253.981 100.368C254.518 100.795 255.094 101.16 255.699 101.456C256.572 101.838 258.385 100.75 259.002 100.28C259.079 100.228 259.143 100.154 259.185 100.066C259.228 99.9784 259.248 99.8797 259.244 99.7804Z" fill="black"/>
<path d="M219.223 92.563C217.733 92.0192 214.323 92.7541 213.06 97.1046C212.701 98.3665 212.08 99.5204 211.246 100.476C210.413 101.432 209.389 102.165 208.254 102.616C208.254 102.616 213.181 104.645 217.155 102.616C220.378 101.014 222.66 96.2228 221.546 94.6942C220.914 93.8156 220.124 93.09 219.223 92.563Z" fill="#1A2E35"/>
<path d="M234.02 62.6533C228.582 64.2701 221.265 71.3251 224.514 79.9821C221.305 82.3779 217.197 89.2712 222.003 93.6806C227.172 98.428 239.887 91.7698 239.887 91.7698L239.981 89.5064L241.498 72.6626L234.02 62.6533Z" fill="#1A2E35"/>
<path d="M218.192 92.9459C218.55 92.0543 219.001 91.2109 219.535 90.4325C219.629 90.3061 219.766 90.2258 219.914 90.2092C220.063 90.1927 220.211 90.2413 220.327 90.3443L220.408 90.4325L223.415 94.0335C223.466 94.0895 223.507 94.1559 223.535 94.229C223.562 94.3022 223.576 94.3806 223.576 94.4597C223.576 94.5389 223.562 94.6173 223.535 94.6904C223.507 94.7636 223.466 94.83 223.415 94.886C223.373 94.9416 223.317 94.9825 223.254 95.0036C222.644 95.2776 222.01 95.4796 221.361 95.6062C220.421 95.7532 218.971 94.2393 218.407 93.622C218.313 93.5463 218.242 93.4411 218.204 93.3204C218.166 93.1997 218.162 93.0691 218.192 92.9459Z" fill="#407BFF"/>
<path opacity="0.3" d="M218.192 92.9459C218.55 92.0543 219.001 91.2109 219.535 90.4325C219.629 90.3061 219.766 90.2258 219.914 90.2092C220.063 90.1927 220.211 90.2413 220.327 90.3443L220.408 90.4325L223.415 94.0335C223.466 94.0895 223.507 94.1559 223.535 94.229C223.562 94.3022 223.576 94.3806 223.576 94.4597C223.576 94.5389 223.562 94.6173 223.535 94.6904C223.507 94.7636 223.466 94.83 223.415 94.886C223.373 94.9416 223.317 94.9825 223.254 95.0036C222.644 95.2776 222.01 95.4796 221.361 95.6062C220.421 95.7532 218.971 94.2393 218.407 93.622C218.313 93.5463 218.242 93.4411 218.204 93.3204C218.166 93.1997 218.162 93.0691 218.192 92.9459Z" fill="black"/>
<path d="M267.112 124.002C269.677 126.177 272.483 128.5 275.302 130.616C278.122 132.732 280.955 134.864 283.868 136.818C286.782 138.773 289.735 140.596 292.716 142.33L294.958 143.58L297.241 144.741C297.993 145.137 298.758 145.49 299.536 145.814L300.678 146.328C301.067 146.49 301.483 146.695 301.725 146.769C303.129 147.237 304.566 147.577 306.021 147.783C307.606 148.033 309.27 148.209 310.962 148.342C314.332 148.577 317.796 148.68 321.273 148.694C324.751 148.709 328.268 148.694 331.773 148.577L342.312 148.253L342.97 154.03C335.918 155.584 328.797 156.737 321.636 157.484C318.024 157.836 314.399 158.101 310.694 158.13C308.841 158.13 306.961 158.13 305.028 157.939C302.949 157.808 300.888 157.438 298.879 156.837C298.261 156.661 297.872 156.484 297.415 156.323L296.073 155.808C295.173 155.485 294.287 155.132 293.387 154.735L290.783 153.589L288.232 152.354C284.86 150.692 281.574 148.828 278.39 146.769C275.222 144.726 272.107 142.609 269.1 140.346C266.029 138.069 263.072 135.616 260.238 132.997L267.112 124.002Z" fill="#FD897B"/>
<path d="M253.179 117.402C256.522 114.551 270.284 123.884 274.473 127.779L271.425 147.959C271.425 147.959 251.621 138.876 250.427 132.673C249.191 126.192 250.655 119.577 253.179 117.402Z" fill="#1A2E35"/>
<path d="M340.853 148.754L349.151 141.714L349.809 152.605C349.809 152.605 344.089 156.485 340.316 154.075L340.853 148.754Z" fill="#FD897B"/>
<path d="M356.545 140.641L360.788 145.814L349.752 152.605L349.094 141.714L356.545 140.641Z" fill="#FD897B"/>
<path d="M198.91 443.534L209.369 444.386L213.182 418.033L202.737 417.181L198.91 443.534Z" fill="#FD897B"/>
<path d="M124.918 406.702L133.793 412.816L149.595 392.298L140.721 386.169L124.918 406.702Z" fill="#FD897B"/>
<path d="M136.599 410.625L128.289 401.469C128.145 401.312 127.955 401.217 127.753 401.201C127.551 401.185 127.35 401.248 127.188 401.38L119.629 407.568C119.28 407.876 119.057 408.323 119.01 408.811C118.962 409.299 119.093 409.787 119.374 410.17L119.494 410.317C122.435 413.447 124.006 414.8 127.658 418.827C129.9 421.311 132.947 425.176 136.049 428.601C139.15 432.025 142.399 428.836 141.419 427.131C136.881 419.385 137.7 416.49 137.391 412.551C137.354 411.824 137.072 411.138 136.599 410.625Z" fill="#1A2E35"/>
<path d="M210.065 442.741H198.277C198.069 442.741 197.868 442.82 197.709 442.965C197.55 443.11 197.442 443.312 197.404 443.535L195.538 453.735C195.463 454.183 195.552 454.645 195.785 455.022C196.019 455.399 196.378 455.66 196.786 455.749C196.911 455.763 197.037 455.763 197.162 455.749C201.271 455.749 203.271 455.411 208.454 455.411C211.636 455.411 220.537 455.763 224.981 455.763C229.425 455.763 229.868 451.001 228.056 450.575C220 448.635 214.455 445.975 211.81 443.417C211.324 442.965 210.703 442.725 210.065 442.741Z" fill="#1A2E35"/>
<path d="M213.183 418.034L211.061 432.673L200.75 430.777L202.724 417.196L213.183 418.034Z" fill="#E77064"/>
<path d="M140.724 386.184L149.599 392.298L143.06 400.793L133.984 394.929L140.724 386.184Z" fill="#E77064"/>
<path d="M206.859 178.473L248.668 187.395C270.271 123.356 265.572 121.254 265.572 121.254C262.534 119.425 259.395 117.805 256.173 116.404L255.61 116.169C252.924 115.096 252.387 114.934 248.816 113.788C242.667 112.185 236.934 110.848 229.831 109.746L228.489 109.54C227.146 109.363 225.924 109.217 224.689 109.084C223.857 108.981 223.024 108.923 222.232 108.864L219.547 108.702C214.955 108.452 211.666 108.526 211.666 108.526C212.941 148.519 210.874 159.998 206.859 178.473Z" fill="#1A2E35"/>
<path d="M235.872 86.7725C235.872 93.7099 234.891 106.218 229.816 109.775C229.816 109.775 230.286 116.918 241.631 119.328C254.118 121.989 248.801 113.817 248.801 113.817C242.316 110.583 243.43 105.086 245.579 100.148L235.872 86.7725Z" fill="#FD897B"/>
<path d="M239.836 92.2246L245.583 100.147C245.084 101.294 244.671 102.484 244.348 103.704C241.81 102.734 238.789 98.8534 238.977 95.8109C239.059 94.5678 239.351 93.352 239.836 92.2246Z" fill="#E77064"/>
<path d="M235.267 70.839C233.924 82.1417 233.105 86.8891 237.24 93.7236C243.457 104.012 256.426 103.351 260.843 92.7242C264.871 83.1558 266.375 66.2679 257.178 59.7274C255.622 58.6023 253.879 57.8239 252.049 57.4365C250.218 57.0492 248.335 57.0606 246.509 57.4701C244.682 57.8796 242.947 58.6792 241.403 59.8231C239.859 60.967 238.535 62.4328 237.509 64.1368C236.301 66.1525 235.534 68.446 235.267 70.839Z" fill="#FD897B"/>
<path d="M268.876 52.938C269.065 54.7304 268.942 56.5458 268.514 58.2881C268.417 57.6968 268.287 57.1126 268.124 56.539C264.445 43.2227 247.878 46.3975 242.883 52.1296C234.827 49.6016 227.161 51.6152 228.181 62.4182C228.309 65.2014 229.224 67.8724 230.8 70.0611C229.551 73.8531 230.8 79.894 234.921 80.0703C240.721 80.3202 246.226 71.913 248.441 67.2979C252.469 68.0475 258.269 68.7677 262.673 67.5918C263.412 68.0769 264.016 68.4149 264.016 68.4149C268.702 65.6664 272.273 63.0061 268.876 52.938Z" fill="#1A2E35"/>
<path d="M231.697 78.5562C231.535 80.749 232.167 82.9235 233.455 84.6117C235.201 86.8311 237.483 85.5229 238.302 82.892C238.987 80.511 238.893 76.4984 236.557 75.2491C236.151 75.0405 235.712 74.9214 235.265 74.8986C234.817 74.8758 234.37 74.9497 233.948 75.1163C233.527 75.2828 233.14 75.5386 232.809 75.8691C232.478 76.1996 232.209 76.5982 232.019 77.0423C231.818 77.5173 231.708 78.0326 231.697 78.5562Z" fill="#FD897B"/>
<path d="M248.037 187.394C248.037 187.394 248.198 278.256 241.405 312.473C234.343 348.071 213.572 429.057 213.572 429.057L198.535 426.926C198.535 426.926 210.31 345.117 215.318 309.739C220.782 271.187 217.439 180.868 217.439 180.868L248.037 187.394Z" fill="#407BFF"/>
<path opacity="0.3" d="M248.037 187.394C248.037 187.394 248.198 278.256 241.405 312.473C234.343 348.071 213.572 429.057 213.572 429.057L198.535 426.926C198.535 426.926 210.31 345.117 215.318 309.739C220.782 271.187 217.439 180.868 217.439 180.868L248.037 187.394Z" fill="black"/>
<path d="M216.133 430.483L195.953 427.632L196.812 419.812L219.717 422.752L216.133 430.483Z" fill="#1A2E35"/>
<path d="M237.628 185.043C237.628 185.043 215.113 260.134 203.929 303.39C192.141 349.027 146.948 399.5 146.948 399.5L133.992 391.298C133.992 391.298 164.872 343.383 176.217 300.803C199.324 214.365 189.831 196.051 206.856 178.473L237.628 185.043Z" fill="#407BFF"/>
<path opacity="0.3" d="M237.628 185.043C237.628 185.043 215.113 260.134 203.929 303.39C192.141 349.027 146.948 399.5 146.948 399.5L133.992 391.298C133.992 391.298 164.872 343.383 176.217 300.803C199.324 214.365 189.831 196.051 206.856 178.473L237.628 185.043Z" fill="black"/>
<path d="M149.059 401.777L131.055 390.401L135.539 383.375L155.53 395.442L149.059 401.777Z" fill="#1A2E35"/>
<path d="M250.172 77.2622C250.01 78.1735 250.319 78.9965 250.87 79.1141C251.42 79.2317 251.984 78.585 252.212 77.6443C252.441 76.7037 252.065 75.8953 251.514 75.7777C250.964 75.6601 250.333 76.3509 250.172 77.2622Z" fill="#1A2E35"/>
<path d="M259.554 79.261C259.393 80.1722 259.702 81.01 260.253 81.1276C260.803 81.2452 261.367 80.5985 261.528 79.6578C261.689 78.7172 261.38 77.9088 260.83 77.8059C260.279 77.703 259.715 78.335 259.554 79.261Z" fill="#1A2E35"/>
<path d="M260.59 77.8219L262.698 77.6309C262.698 77.6309 261.369 79.1154 260.59 77.8219Z" fill="#1A2E35"/>
<path d="M256.801 80.3057C257.173 82.5339 257.823 84.6953 258.735 86.7286C258.254 86.9753 257.729 87.1032 257.197 87.1032C256.666 87.1032 256.141 86.9753 255.66 86.7286L256.801 80.3057Z" fill="#FD5652"/>
<path d="M252.144 89.6672C251.021 89.4661 249.96 88.9707 249.051 88.2234C248.141 87.476 247.411 86.4989 246.921 85.3754C246.907 85.3436 246.9 85.3092 246.899 85.2741C246.897 85.2391 246.903 85.2042 246.914 85.1714C246.925 85.1385 246.942 85.1085 246.964 85.083C246.986 85.0574 247.012 85.0369 247.042 85.0227C247.102 84.9977 247.169 84.9991 247.229 85.0264C247.289 85.0537 247.337 85.1049 247.364 85.1696C247.833 86.2021 248.517 87.0994 249.361 87.7888C250.206 88.4782 251.186 88.9404 252.224 89.1381C252.256 89.1434 252.287 89.1557 252.314 89.1742C252.342 89.1927 252.366 89.2171 252.384 89.2458C252.403 89.2746 252.416 89.3072 252.424 89.3417C252.431 89.3762 252.431 89.4119 252.426 89.4467C252.412 89.5156 252.376 89.5765 252.324 89.6174C252.272 89.6583 252.207 89.676 252.144 89.6672Z" fill="#1A2E35"/>
<path d="M248.036 73.353C247.906 73.3459 247.784 73.2863 247.692 73.1858C247.6 73.0853 247.546 72.9511 247.539 72.8092C247.545 72.6592 247.602 72.5173 247.7 72.4123C248.275 71.8204 248.972 71.3875 249.731 71.1497C250.49 70.9119 251.289 70.8762 252.064 71.0454C252.191 71.0865 252.298 71.18 252.363 71.3062C252.428 71.4324 252.446 71.5813 252.413 71.7215C252.397 71.7892 252.369 71.8529 252.331 71.9088C252.293 71.9647 252.245 72.0118 252.19 72.0473C252.135 72.0828 252.074 72.1061 252.011 72.1158C251.948 72.1254 251.884 72.1213 251.822 72.1037C251.207 71.9843 250.575 72.0231 249.976 72.217C249.378 72.4108 248.828 72.7544 248.371 73.2207C248.279 73.3101 248.159 73.3574 248.036 73.353Z" fill="#1A2E35"/>
<path d="M264.766 75.3969C264.667 75.3982 264.571 75.3665 264.489 75.3061C264.407 75.2457 264.345 75.1594 264.309 75.0589C264.077 74.4293 263.715 73.867 263.251 73.4157C262.788 72.9645 262.235 72.6365 261.637 72.4573C261.573 72.4449 261.511 72.4187 261.456 72.3802C261.401 72.3417 261.353 72.2916 261.316 72.2329C261.279 72.1742 261.252 72.108 261.238 72.038C261.224 71.9681 261.223 71.8958 261.234 71.8253C261.261 71.6847 261.335 71.5605 261.443 71.4784C261.55 71.3963 261.682 71.3626 261.812 71.3844C262.578 71.5938 263.287 72.0005 263.88 72.5706C264.473 73.1407 264.933 73.8578 265.222 74.662C265.249 74.7276 265.263 74.7983 265.265 74.8701C265.267 74.9419 265.255 75.0133 265.232 75.0803C265.208 75.1473 265.172 75.2084 265.127 75.2602C265.081 75.3121 265.027 75.3535 264.967 75.3822L264.766 75.3969Z" fill="#1A2E35"/>
<path d="M251.297 85.3177C250.881 85.3194 250.471 85.2154 250.098 85.0139C249.725 84.8124 249.4 84.519 249.149 84.1566C248.518 83.0785 248.096 81.8693 247.911 80.6048C247.727 79.3403 247.782 78.0475 248.075 76.8076C248.84 72.1631 251.499 68.3857 254.009 68.3857C254.427 68.3923 254.838 68.5013 255.212 68.7048C255.586 68.9083 255.914 69.2011 256.171 69.5616C256.802 70.6396 257.224 71.8488 257.408 73.1134C257.593 74.3779 257.538 75.6706 257.245 76.9105C256.48 81.555 253.808 85.3177 251.297 85.3177ZM253.982 68.7973C251.633 68.7973 249.109 72.4424 248.37 76.9105C247.9 79.8501 248.276 82.4957 249.377 83.9214C249.6 84.2395 249.887 84.4976 250.215 84.6759C250.543 84.8542 250.904 84.948 251.27 84.9503C253.633 84.9503 256.144 81.3199 256.882 76.8517C257.167 75.6705 257.225 74.4374 257.052 73.2305C256.878 72.0236 256.478 70.8693 255.875 69.8408C255.658 69.5223 255.377 69.2626 255.053 69.0817C254.73 68.9008 254.372 68.8035 254.009 68.7973H253.982Z" fill="#F9F9F9"/>
<path d="M261.733 86.7868C261.298 86.7801 260.871 86.6655 260.482 86.4516C260.094 86.2378 259.755 85.9302 259.491 85.5521C258.888 84.5626 258.48 83.4465 258.293 82.2749C258.106 81.1033 258.143 79.9018 258.403 78.747C259.088 74.4258 261.666 70.9277 264.15 70.9277C264.585 70.9404 265.012 71.0591 265.4 71.2752C265.788 71.4913 266.127 71.7994 266.392 72.1771C266.989 73.1666 267.394 74.2802 267.581 75.4484C267.768 76.6166 267.733 77.8145 267.479 78.9675C266.808 83.3034 264.23 86.7868 261.733 86.7868ZM264.109 71.2952C261.773 71.2952 259.357 74.661 258.739 78.8205C258.498 79.9226 258.464 81.0667 258.64 82.1834C258.815 83.3002 259.196 84.3663 259.759 85.317C259.999 85.6457 260.301 85.9142 260.644 86.1044C260.986 86.2945 261.362 86.4019 261.746 86.4193C264.083 86.4193 266.513 83.0682 267.117 78.9087C267.356 77.8073 267.39 76.6645 267.217 75.5484C267.044 74.4323 266.667 73.3657 266.11 72.4122C265.871 72.0808 265.57 71.8095 265.228 71.6168C264.885 71.424 264.508 71.3143 264.123 71.2952H264.109Z" fill="#F9F9F9"/>
<path d="M139.686 415.961C138.343 415.961 137.001 413.697 136.209 412.389C136.182 412.346 136.168 412.294 136.168 412.242C136.168 412.19 136.182 412.139 136.209 412.095C136.237 412.052 136.276 412.018 136.321 411.998C136.366 411.977 136.416 411.97 136.464 411.978C136.893 412.08 140.586 412.962 141.056 414.344C141.109 414.496 141.123 414.662 141.097 414.822C141.071 414.983 141.006 415.132 140.908 415.255C140.782 415.483 140.601 415.669 140.386 415.793C140.171 415.917 139.929 415.975 139.686 415.961ZM136.88 412.654C137.914 414.359 138.921 415.373 139.646 415.417C139.807 415.418 139.965 415.375 140.106 415.29C140.247 415.205 140.366 415.082 140.451 414.932C140.497 414.88 140.527 414.815 140.539 414.744C140.551 414.674 140.544 414.601 140.518 414.535C140.277 413.8 138.357 413.065 136.88 412.654Z" fill="#407BFF"/>
<path d="M137.485 412.654C137.078 412.656 136.673 412.607 136.277 412.507C136.236 412.492 136.199 412.467 136.169 412.434C136.139 412.401 136.116 412.361 136.102 412.316C136.075 412.23 136.075 412.137 136.102 412.052C136.196 411.963 138.25 409.744 139.767 409.744H139.875C140.063 409.758 140.246 409.815 140.412 409.911C140.579 410.007 140.725 410.141 140.841 410.303C140.978 410.459 141.063 410.662 141.083 410.878C141.102 411.093 141.055 411.31 140.949 411.493C140.519 412.287 138.801 412.654 137.485 412.654ZM136.881 412.081C138.143 412.243 140.184 411.846 140.6 411.185C140.667 411.082 140.721 410.92 140.519 410.641C140.449 410.533 140.357 410.444 140.249 410.383C140.142 410.322 140.023 410.289 139.902 410.288C138.748 410.524 137.691 411.152 136.881 412.081Z" fill="#407BFF"/>
<path d="M213.92 444.755C212.809 444.726 211.702 444.578 210.617 444.314C210.566 444.303 210.518 444.274 210.482 444.232C210.446 444.19 210.423 444.136 210.416 444.079C210.41 444.023 210.419 443.967 210.443 443.917C210.467 443.867 210.505 443.826 210.55 443.8C211.047 443.535 215.357 441.184 216.605 441.977C216.718 442.057 216.811 442.165 216.877 442.293C216.942 442.422 216.978 442.565 216.981 442.712C216.995 442.96 216.955 443.208 216.864 443.436C216.773 443.663 216.634 443.864 216.458 444.02C215.71 444.569 214.817 444.827 213.92 444.755ZM211.463 443.962C213.759 444.373 215.491 444.27 216.162 443.638C216.277 443.53 216.368 443.394 216.426 443.241C216.484 443.088 216.509 442.922 216.498 442.756C216.5 442.701 216.489 442.646 216.466 442.596C216.442 442.547 216.407 442.506 216.364 442.477C215.692 442.051 213.302 443.05 211.463 443.947V443.962Z" fill="#407BFF"/>
<path d="M210.688 444.314H210.54C210.501 444.286 210.47 444.246 210.451 444.199C210.431 444.152 210.425 444.1 210.433 444.05C210.433 443.844 211.077 439.17 213.413 439.17H213.615C214.286 439.243 214.474 439.611 214.514 439.92C214.702 441.213 212.098 443.712 210.782 444.329L210.688 444.314ZM213.373 439.67C211.856 439.67 211.185 442.374 210.956 443.55C212.299 442.683 214.085 440.728 213.977 439.949C213.977 439.949 213.977 439.714 213.507 439.67H213.373Z" fill="#407BFF"/>
<path d="M251.207 75.822L253.315 75.6162C253.315 75.6162 251.986 77.1154 251.207 75.822Z" fill="#1A2E35"/>
<path d="M241.979 129.103C224.525 121.857 219.074 111.01 219.491 108.731L222.176 108.908H222.699C223.369 108.927 224.037 108.991 224.7 109.099C225.935 109.216 227.211 109.363 228.5 109.555L229.842 109.76C236.25 110.614 242.594 111.964 248.827 113.802C251.673 114.713 252.613 115.007 254.197 115.625L255.54 116.183L256.104 116.418C257.5 119.711 257.191 126.442 241.979 129.103Z" fill="#FD897B"/>
<path d="M241.979 129.103C224.525 121.857 219.074 111.01 219.491 108.731L222.176 108.908H222.699C226.244 114.42 234.004 122.033 241.912 123.077C248.276 121.607 254.278 119.931 254.224 115.625L255.567 116.183L256.13 116.418C257.5 119.711 257.191 126.442 241.979 129.103Z" fill="#407BFF"/>
<path opacity="0.3" d="M241.979 129.103C224.525 121.857 219.074 111.01 219.491 108.731L222.176 108.908H222.699C226.244 114.42 234.004 122.033 241.912 123.077C248.276 121.607 254.278 119.931 254.224 115.625L255.567 116.183L256.13 116.418C257.5 119.711 257.191 126.442 241.979 129.103Z" fill="black"/>
<path d="M206.71 175.651L204.025 179.355C203.824 179.634 204.119 180.031 204.602 180.134L248.452 189.482C248.828 189.57 249.177 189.482 249.244 189.173L250.345 185.16C250.426 184.881 250.144 184.573 249.728 184.484L207.382 175.46C207.264 175.432 207.142 175.434 207.025 175.467C206.908 175.501 206.8 175.564 206.71 175.651Z" fill="#1A2E35"/>
<path d="M211.478 182.044L210.35 181.809C210.122 181.809 209.974 181.604 210.014 181.442L211.491 176.239C211.491 176.077 211.76 176.004 211.975 176.048L213.116 176.283C213.344 176.283 213.492 176.503 213.452 176.65L211.975 181.868C211.923 181.955 211.845 182.02 211.755 182.052C211.664 182.084 211.567 182.082 211.478 182.044Z" fill="#407BFF"/>
<path opacity="0.3" d="M211.478 182.044L210.35 181.809C210.122 181.809 209.974 181.604 210.014 181.442L211.491 176.239C211.491 176.077 211.76 176.004 211.975 176.048L213.116 176.283C213.344 176.283 213.492 176.503 213.452 176.65L211.975 181.868C211.923 181.955 211.845 182.02 211.755 182.052C211.664 182.084 211.567 182.082 211.478 182.044Z" fill="black"/>
<path d="M214.457 126.265C213.947 129.749 213.463 133.614 213.114 137.23C212.765 140.845 212.456 144.579 212.295 148.341C212.206 150.193 212.152 152.045 212.134 153.897V159.409C212.201 163.008 212.457 166.6 212.899 170.168C213.155 171.388 213.61 172.548 214.242 173.592C215.05 175.021 215.947 176.386 216.927 177.678C219.072 180.467 221.367 183.112 223.801 185.6C226.258 188.187 228.836 190.686 231.481 193.126C234.126 195.566 236.851 197.991 239.537 200.328L236.65 205.207C230.331 201.418 224.289 197.099 218.579 192.288C215.628 189.819 212.846 187.117 210.254 184.204C208.869 182.646 207.598 180.97 206.455 179.192C205.034 177.094 204.024 174.697 203.488 172.152L202.991 169.036C202.816 168.022 202.695 167.008 202.588 166.008C202.319 163.98 202.172 161.966 202.024 159.953C201.744 155.948 201.659 151.93 201.769 147.915C201.876 143.932 202.078 139.964 202.44 136.01C202.803 132.056 203.259 128.176 203.984 124.09L214.457 126.265Z" fill="#FD897B"/>
<path d="M205.543 111.598C199.797 116.684 201.166 131.793 201.166 131.793L220.5 138.76C220.5 138.76 219.614 121.343 218.674 115.082C217.519 107.63 211.182 106.586 205.543 111.598Z" fill="#1A2E35"/>
<path d="M237.173 199.387L245.913 195.83L244.571 204.928C244.571 204.928 238.233 207.427 234.984 204.223L237.173 199.387Z" fill="#FD897B"/>
<path d="M256.322 197.182V204.208L244.574 204.928L245.917 195.83L256.322 197.182Z" fill="#FD897B"/>
<path d="M245.243 189.246L244.116 189.011C243.887 189.011 243.74 188.805 243.78 188.643L245.257 183.44C245.257 183.278 245.525 183.205 245.754 183.249L246.881 183.484C247.11 183.484 247.257 183.705 247.217 183.852L245.74 189.069C245.7 189.216 245.525 189.304 245.243 189.246Z" fill="#407BFF"/>
<path opacity="0.3" d="M245.243 189.246L244.116 189.011C243.887 189.011 243.74 188.805 243.78 188.643L245.257 183.44C245.257 183.278 245.525 183.205 245.754 183.249L246.881 183.484C247.11 183.484 247.257 183.705 247.217 183.852L245.74 189.069C245.7 189.216 245.525 189.304 245.243 189.246Z" fill="black"/>
<path d="M228.369 185.631L227.228 185.396C227 185.396 226.852 185.19 226.906 185.029L228.382 179.826C228.382 179.664 228.638 179.591 228.866 179.635L230.007 179.87C230.222 179.87 230.383 180.09 230.329 180.237L228.852 185.455C228.812 185.631 228.597 185.705 228.369 185.631Z" fill="#407BFF"/>
<path opacity="0.3" d="M228.369 185.631L227.228 185.396C227 185.396 226.852 185.19 226.906 185.029L228.382 179.826C228.382 179.664 228.638 179.591 228.866 179.635L230.007 179.87C230.222 179.87 230.383 180.09 230.329 180.237L228.852 185.455C228.812 185.631 228.597 185.705 228.369 185.631Z" fill="black"/>
<path d="M142.856 271.333L212.457 437.743C214.053 441.525 216.95 444.462 220.517 445.913C224.084 447.365 228.031 447.212 231.495 445.489L242.545 439.962L498.406 311.723C501.863 309.982 504.549 306.814 505.877 302.911C507.205 299.009 507.068 294.689 505.495 290.896L443.99 143.917L435.935 124.502C434.334 120.725 431.436 117.793 427.871 116.342C424.306 114.892 420.362 115.04 416.897 116.756L149.972 250.507C146.516 252.248 143.829 255.415 142.496 259.316C141.163 263.217 141.292 267.536 142.856 271.333Z" fill="#407BFF"/>
<path opacity="0.1" d="M142.856 271.333L212.457 437.743C214.053 441.525 216.95 444.462 220.517 445.913C224.084 447.365 228.031 447.212 231.495 445.489L242.545 439.962L498.406 311.723C501.863 309.982 504.549 306.814 505.877 302.911C507.205 299.009 507.068 294.689 505.495 290.896L443.99 143.917L435.935 124.502C434.334 120.725 431.436 117.793 427.871 116.342C424.306 114.892 420.362 115.04 416.897 116.756L149.972 250.507C146.516 252.248 143.829 255.415 142.496 259.316C141.163 263.217 141.292 267.536 142.856 271.333Z" fill="white"/>
<path d="M464.142 191.998L171.113 338.865L205.408 420.866L498.437 273.999L464.142 191.998Z" fill="#407BFF"/>
<path opacity="0.3" d="M464.142 191.998L171.113 338.865L205.408 420.866L498.437 273.999L464.142 191.998Z" fill="white"/>
<path d="M452.004 229.934L266.828 322.745L279.102 352.092L464.277 259.281L452.004 229.934Z" fill="#407BFF"/>
<path opacity="0.8" d="M452.004 229.934L266.828 322.745L279.102 352.092L464.277 259.281L452.004 229.934Z" fill="white"/>
<path d="M454.108 162.115L160.844 310.322L179.307 354.106L472.571 205.899L454.108 162.115Z" fill="#407BFF"/>
<path opacity="0.3" d="M454.108 162.115L160.844 310.322L179.307 354.106L472.571 205.899L454.108 162.115Z" fill="black"/>
<path d="M182.651 273.421L242.545 439.904L498.407 311.665C501.863 309.924 504.549 306.756 505.877 302.853C507.206 298.95 507.068 294.631 505.496 290.838L443.991 143.859L190.761 253.035C187.226 254.575 184.39 257.582 182.871 261.4C181.352 265.218 181.273 269.539 182.651 273.421Z" fill="#407BFF"/>
<path d="M521.31 220.796L520.043 221.283L522.139 227.814L523.406 227.327L521.31 220.796Z" fill="#407BFF"/>
<path opacity="0.1" d="M521.31 220.796L520.043 221.283L522.139 227.814L523.406 227.327L521.31 220.796Z" fill="white"/>
<path d="M510.736 187.968L509.469 188.455L517.725 214.193L518.992 213.706L510.736 187.968Z" fill="#407BFF"/>
<path opacity="0.1" d="M510.736 187.968L509.469 188.455L517.725 214.193L518.992 213.706L510.736 187.968Z" fill="white"/>
<path d="M200.469 253.61L477.45 147.123C481.043 145.754 484.985 145.999 488.415 147.803C491.844 149.607 494.481 152.824 495.75 156.751L551.146 329.436C552.397 333.37 552.177 337.686 550.532 341.442C548.886 345.198 545.951 348.089 542.365 349.484L265.385 455.97C261.789 457.332 257.848 457.084 254.419 455.281C250.989 453.478 248.349 450.266 247.071 446.343L191.675 273.658C190.424 269.722 190.647 265.404 192.295 261.648C193.943 257.891 196.881 255.002 200.469 253.61Z" fill="#407BFF"/>
<path opacity="0.1" d="M200.469 253.61L477.45 147.123C481.043 145.754 484.985 145.999 488.415 147.803C491.844 149.607 494.481 152.824 495.75 156.751L551.146 329.436C552.397 333.37 552.177 337.686 550.532 341.442C548.886 345.198 545.951 348.089 542.365 349.484L265.385 455.97C261.789 457.332 257.848 457.084 254.419 455.281C250.989 453.478 248.349 450.266 247.071 446.343L191.675 273.658C190.424 269.722 190.647 265.404 192.295 261.648C193.943 257.891 196.881 255.002 200.469 253.61Z" fill="white"/>
<path d="M516.954 222.833L212.879 339.731L236.977 414.852L541.052 297.954L516.954 222.833Z" fill="#407BFF"/>
<path opacity="0.3" d="M516.954 222.833L212.879 339.731L236.977 414.852L541.052 297.954L516.954 222.833Z" fill="white"/>
<path d="M480.556 186.274L417.699 210.438L421.138 221.158L483.995 196.993L480.556 186.274Z" fill="#407BFF"/>
<path opacity="0.8" d="M480.556 186.274L417.699 210.438L421.138 221.158L483.995 196.993L480.556 186.274Z" fill="white"/>
<path d="M522.672 317.548L472.242 336.936L474.039 342.538L524.47 323.151L522.672 317.548Z" fill="#407BFF"/>
<path opacity="0.8" d="M522.672 317.548L472.242 336.936L474.039 342.538L524.47 323.151L522.672 317.548Z" fill="white"/>
<path d="M526.099 328.267L461.113 353.25L462.911 358.853L527.896 333.87L526.099 328.267Z" fill="#407BFF"/>
<path opacity="0.8" d="M526.099 328.267L461.113 353.25L462.911 358.853L527.896 333.87L526.099 328.267Z" fill="white"/>
<path d="M294.383 410.106L261.891 422.598L265.756 434.649L298.249 422.157L294.383 410.106Z" fill="#407BFF"/>
<path opacity="0.8" d="M294.383 410.106L261.891 422.598L265.756 434.649L298.249 422.157L294.383 410.106Z" fill="white"/>
<path d="M468.117 306.888L506.059 292.308C508.059 291.528 509.697 289.916 510.618 287.822C511.538 285.727 511.665 283.32 510.973 281.123C510.261 278.933 508.788 277.139 506.875 276.132C504.962 275.125 502.763 274.985 500.756 275.743L462.8 290.338C460.8 291.117 459.161 292.73 458.241 294.824C457.321 296.919 457.193 299.326 457.886 301.523C458.6 303.714 460.076 305.506 461.993 306.511C463.909 307.516 466.11 307.651 468.117 306.888Z" fill="#407BFF"/>
<path d="M403.119 331.876L441.075 317.281C443.06 316.498 444.685 314.894 445.601 312.814C446.518 310.733 446.652 308.342 445.975 306.154C445.261 303.967 443.787 302.177 441.874 301.173C439.961 300.169 437.763 300.031 435.758 300.79L397.816 315.385C395.815 316.164 394.177 317.776 393.257 319.871C392.337 321.965 392.209 324.373 392.902 326.57C393.627 328.746 395.105 330.522 397.017 331.515C398.929 332.508 401.121 332.638 403.119 331.876Z" fill="#407BFF"/>
<path d="M338.166 356.861L376.122 342.266C378.102 341.478 379.721 339.871 380.632 337.791C381.543 335.712 381.674 333.324 380.996 331.14C380.281 328.953 378.807 327.163 376.894 326.158C374.981 325.154 372.784 325.016 370.778 325.775L332.796 340.311C330.798 341.093 329.163 342.707 328.245 344.801C327.328 346.895 327.202 349.301 327.895 351.496C328.609 353.697 330.092 355.498 332.017 356.504C333.943 357.51 336.154 357.638 338.166 356.861Z" fill="#407BFF"/>
<path d="M273.146 381.846L311.102 367.251C313.089 366.472 314.718 364.869 315.637 362.788C316.556 360.707 316.692 358.315 316.016 356.125C315.301 353.938 313.827 352.148 311.914 351.144C310.001 350.139 307.804 350.002 305.799 350.76L267.843 365.355C265.843 366.135 264.204 367.747 263.284 369.841C262.364 371.936 262.236 374.344 262.929 376.541C263.654 378.717 265.132 380.493 267.044 381.486C268.956 382.479 271.148 382.608 273.146 381.846Z" fill="#407BFF"/>
<g opacity="0.8">
<path d="M468.117 306.888L506.059 292.308C508.059 291.528 509.697 289.916 510.618 287.822C511.538 285.727 511.665 283.32 510.973 281.123C510.261 278.933 508.788 277.139 506.875 276.132C504.962 275.125 502.763 274.985 500.756 275.743L462.8 290.338C460.8 291.117 459.161 292.73 458.241 294.824C457.321 296.919 457.193 299.326 457.886 301.523C458.6 303.714 460.076 305.506 461.993 306.511C463.909 307.516 466.11 307.651 468.117 306.888Z" fill="white"/>
<path d="M403.123 331.875L441.078 317.28C443.064 316.497 444.689 314.893 445.605 312.813C446.522 310.732 446.656 308.341 445.979 306.153C445.264 303.967 443.791 302.176 441.878 301.172C439.965 300.168 437.767 300.03 435.762 300.789L397.819 315.384C395.819 316.163 394.181 317.775 393.261 319.87C392.341 321.964 392.213 324.372 392.906 326.569C393.631 328.745 395.109 330.521 397.021 331.514C398.933 332.507 401.125 332.637 403.123 331.875Z" fill="white"/>
<path d="M338.166 356.861L376.122 342.266C378.102 341.478 379.721 339.871 380.632 337.791C381.543 335.712 381.674 333.324 380.996 331.14C380.281 328.953 378.807 327.163 376.894 326.158C374.981 325.154 372.784 325.016 370.778 325.775L332.796 340.311C330.798 341.093 329.163 342.707 328.245 344.801C327.328 346.895 327.202 349.301 327.895 351.496C328.609 353.697 330.092 355.498 332.017 356.504C333.943 357.51 336.154 357.638 338.166 356.861Z" fill="white"/>
<path d="M273.142 381.847L311.098 367.252C313.086 366.473 314.714 364.87 315.633 362.789C316.552 360.708 316.688 358.316 316.012 356.126C315.297 353.939 313.824 352.149 311.911 351.145C309.998 350.14 307.8 350.002 305.795 350.761L267.839 365.356C265.839 366.136 264.201 367.748 263.28 369.842C262.36 371.937 262.232 374.344 262.925 376.542C263.65 378.718 265.128 380.494 267.04 381.487C268.952 382.48 271.144 382.609 273.142 381.847Z" fill="white"/>
</g>
<path d="M487.837 227.17L454.065 240.154C451.196 241.256 449.688 244.696 450.695 247.836L457.733 269.775C458.74 272.915 461.882 274.567 464.75 273.464L498.522 260.48C501.391 259.378 502.9 255.938 501.892 252.798L494.855 230.859C493.847 227.719 490.705 226.068 487.837 227.17Z" fill="#407BFF"/>
<path opacity="0.3" d="M487.837 227.17L454.065 240.154C451.196 241.256 449.688 244.696 450.695 247.836L457.733 269.775C458.74 272.915 461.882 274.567 464.75 273.464L498.522 260.48C501.391 259.378 502.9 255.938 501.892 252.798L494.855 230.859C493.847 227.719 490.705 226.068 487.837 227.17Z" fill="black"/>
<path d="M284.031 267.939C283.189 265.305 281.881 262.877 280.181 260.797C278.481 258.716 276.423 257.022 274.125 255.813C271.827 254.603 269.334 253.902 266.788 253.748C264.242 253.594 261.693 253.992 259.287 254.917L232.005 266.132L231.656 266.235L230.851 266.602L230.354 266.808C225.949 268.985 222.479 272.937 220.666 277.842C218.853 282.747 218.835 288.228 220.617 293.146C222.398 298.065 225.842 302.043 230.233 304.255C234.624 306.466 239.625 306.741 244.196 305.022L270.028 295.616C270.772 295.433 271.507 295.207 272.23 294.939C272.764 294.735 273.289 294.499 273.801 294.234C278.191 292.033 281.673 288.118 283.565 283.254C285.457 278.391 285.624 272.93 284.031 267.939Z" fill="#407BFF"/>
<path opacity="0.8" d="M284.031 267.939C283.189 265.305 281.881 262.877 280.181 260.797C278.481 258.716 276.423 257.022 274.125 255.813C271.827 254.603 269.334 253.902 266.788 253.748C264.242 253.594 261.693 253.992 259.287 254.917L232.005 266.132L231.656 266.235L230.851 266.602L230.354 266.808C225.949 268.985 222.479 272.937 220.666 277.842C218.853 282.747 218.835 288.228 220.617 293.146C222.398 298.065 225.842 302.043 230.233 304.255C234.624 306.466 239.625 306.741 244.196 305.022L270.028 295.616C270.772 295.433 271.507 295.207 272.23 294.939C272.764 294.735 273.289 294.499 273.801 294.234C278.191 292.033 281.673 288.118 283.565 283.254C285.457 278.391 285.624 272.93 284.031 267.939Z" fill="white"/>
</svg>
