<svg width="25" height="24" viewBox="0 0 25 24" fill="none" xmlns="http://www.w3.org/2000/svg">
<g id="chevron-right 2">
<path id="Vector" fill-rule="evenodd" clip-rule="evenodd" d="M7.47034 2.46839C7.54001 2.39854 7.62277 2.34313 7.71389 2.30532C7.80501 2.26751 7.90269 2.24805 8.00134 2.24805C8.09999 2.24805 8.19767 2.26751 8.28879 2.30532C8.37991 2.34313 8.46267 2.39854 8.53234 2.46839L17.5323 11.4684C17.6022 11.5381 17.6576 11.6208 17.6954 11.7119C17.7332 11.8031 17.7527 11.9007 17.7527 11.9994C17.7527 12.098 17.7332 12.1957 17.6954 12.2868C17.6576 12.378 17.6022 12.4607 17.5323 12.5304L8.53234 21.5304C8.39151 21.6712 8.2005 21.7503 8.00134 21.7503C7.80218 21.7503 7.61117 21.6712 7.47034 21.5304C7.32951 21.3896 7.25039 21.1986 7.25039 20.9994C7.25039 20.8002 7.32951 20.6092 7.47034 20.4684L15.9408 11.9994L7.47034 3.53039C7.4005 3.46072 7.34508 3.37796 7.30727 3.28684C7.26946 3.19572 7.25 3.09804 7.25 2.99939C7.25 2.90074 7.26946 2.80305 7.30727 2.71194C7.34508 2.62082 7.4005 2.53806 7.47034 2.46839Z" fill="#FAFAFA"/>
</g>
</svg>
