<svg width="24" height="25" viewBox="0 0 24 25" fill="none" xmlns="http://www.w3.org/2000/svg">
<g id="Calendar3" clip-path="url(#clip0_3110_8655)">
<path id="Vector" d="M21 0.5H3C2.20435 0.5 1.44129 0.816071 0.87868 1.37868C0.316071 1.94129 0 2.70435 0 3.5L0 21.5C0 22.2956 0.316071 23.0587 0.87868 23.6213C1.44129 24.1839 2.20435 24.5 3 24.5H21C21.7956 24.5 22.5587 24.1839 23.1213 23.6213C23.6839 23.0587 24 22.2956 24 21.5V3.5C24 2.70435 23.6839 1.94129 23.1213 1.37868C22.5587 0.816071 21.7956 0.5 21 0.5ZM1.5 6.2855C1.5 5.576 2.172 5 3 5H21C21.828 5 22.5 5.576 22.5 6.2855V21.7145C22.5 22.424 21.828 23 21 23H3C2.172 23 1.5 22.424 1.5 21.7145V6.2855Z" fill="#5A5555"/>
<path id="Vector_2" d="M9.75 11C10.1478 11 10.5294 10.842 10.8107 10.5607C11.092 10.2794 11.25 9.89782 11.25 9.5C11.25 9.10218 11.092 8.72064 10.8107 8.43934C10.5294 8.15804 10.1478 8 9.75 8C9.35218 8 8.97064 8.15804 8.68934 8.43934C8.40804 8.72064 8.25 9.10218 8.25 9.5C8.25 9.89782 8.40804 10.2794 8.68934 10.5607C8.97064 10.842 9.35218 11 9.75 11ZM14.25 11C14.6478 11 15.0294 10.842 15.3107 10.5607C15.592 10.2794 15.75 9.89782 15.75 9.5C15.75 9.10218 15.592 8.72064 15.3107 8.43934C15.0294 8.15804 14.6478 8 14.25 8C13.8522 8 13.4706 8.15804 13.1893 8.43934C12.908 8.72064 12.75 9.10218 12.75 9.5C12.75 9.89782 12.908 10.2794 13.1893 10.5607C13.4706 10.842 13.8522 11 14.25 11ZM18.75 11C19.1478 11 19.5294 10.842 19.8107 10.5607C20.092 10.2794 20.25 9.89782 20.25 9.5C20.25 9.10218 20.092 8.72064 19.8107 8.43934C19.5294 8.15804 19.1478 8 18.75 8C18.3522 8 17.9706 8.15804 17.6893 8.43934C17.408 8.72064 17.25 9.10218 17.25 9.5C17.25 9.89782 17.408 10.2794 17.6893 10.5607C17.9706 10.842 18.3522 11 18.75 11ZM5.25 15.5C5.64782 15.5 6.02936 15.342 6.31066 15.0607C6.59196 14.7794 6.75 14.3978 6.75 14C6.75 13.6022 6.59196 13.2206 6.31066 12.9393C6.02936 12.658 5.64782 12.5 5.25 12.5C4.85218 12.5 4.47064 12.658 4.18934 12.9393C3.90804 13.2206 3.75 13.6022 3.75 14C3.75 14.3978 3.90804 14.7794 4.18934 15.0607C4.47064 15.342 4.85218 15.5 5.25 15.5ZM9.75 15.5C10.1478 15.5 10.5294 15.342 10.8107 15.0607C11.092 14.7794 11.25 14.3978 11.25 14C11.25 13.6022 11.092 13.2206 10.8107 12.9393C10.5294 12.658 10.1478 12.5 9.75 12.5C9.35218 12.5 8.97064 12.658 8.68934 12.9393C8.40804 13.2206 8.25 13.6022 8.25 14C8.25 14.3978 8.40804 14.7794 8.68934 15.0607C8.97064 15.342 9.35218 15.5 9.75 15.5ZM14.25 15.5C14.6478 15.5 15.0294 15.342 15.3107 15.0607C15.592 14.7794 15.75 14.3978 15.75 14C15.75 13.6022 15.592 13.2206 15.3107 12.9393C15.0294 12.658 14.6478 12.5 14.25 12.5C13.8522 12.5 13.4706 12.658 13.1893 12.9393C12.908 13.2206 12.75 13.6022 12.75 14C12.75 14.3978 12.908 14.7794 13.1893 15.0607C13.4706 15.342 13.8522 15.5 14.25 15.5ZM18.75 15.5C19.1478 15.5 19.5294 15.342 19.8107 15.0607C20.092 14.7794 20.25 14.3978 20.25 14C20.25 13.6022 20.092 13.2206 19.8107 12.9393C19.5294 12.658 19.1478 12.5 18.75 12.5C18.3522 12.5 17.9706 12.658 17.6893 12.9393C17.408 13.2206 17.25 13.6022 17.25 14C17.25 14.3978 17.408 14.7794 17.6893 15.0607C17.9706 15.342 18.3522 15.5 18.75 15.5ZM5.25 20C5.64782 20 6.02936 19.842 6.31066 19.5607C6.59196 19.2794 6.75 18.8978 6.75 18.5C6.75 18.1022 6.59196 17.7206 6.31066 17.4393C6.02936 17.158 5.64782 17 5.25 17C4.85218 17 4.47064 17.158 4.18934 17.4393C3.90804 17.7206 3.75 18.1022 3.75 18.5C3.75 18.8978 3.90804 19.2794 4.18934 19.5607C4.47064 19.842 4.85218 20 5.25 20ZM9.75 20C10.1478 20 10.5294 19.842 10.8107 19.5607C11.092 19.2794 11.25 18.8978 11.25 18.5C11.25 18.1022 11.092 17.7206 10.8107 17.4393C10.5294 17.158 10.1478 17 9.75 17C9.35218 17 8.97064 17.158 8.68934 17.4393C8.40804 17.7206 8.25 18.1022 8.25 18.5C8.25 18.8978 8.40804 19.2794 8.68934 19.5607C8.97064 19.842 9.35218 20 9.75 20ZM14.25 20C14.6478 20 15.0294 19.842 15.3107 19.5607C15.592 19.2794 15.75 18.8978 15.75 18.5C15.75 18.1022 15.592 17.7206 15.3107 17.4393C15.0294 17.158 14.6478 17 14.25 17C13.8522 17 13.4706 17.158 13.1893 17.4393C12.908 17.7206 12.75 18.1022 12.75 18.5C12.75 18.8978 12.908 19.2794 13.1893 19.5607C13.4706 19.842 13.8522 20 14.25 20Z" fill="#5A5555"/>
</g>
<defs>
<clipPath id="clip0_3110_8655">
<rect width="24" height="24" fill="white" transform="translate(0 0.5)"/>
</clipPath>
</defs>
</svg>
