<svg width="31" height="30" viewBox="0 0 31 30" fill="none" xmlns="http://www.w3.org/2000/svg">
<g id="ExclamationTriangle" clip-path="url(#clip0_3353_10205)">
<path id="Vector" d="M15.3832 3.7807C15.4199 3.76055 15.4613 3.75022 15.5032 3.7507C15.5445 3.75054 15.5851 3.76086 15.6213 3.7807C15.664 3.80671 15.6989 3.8436 15.7226 3.88758L28.5794 25.7632C28.6469 25.8757 28.6451 25.9957 28.5832 26.1063C28.5574 26.1503 28.523 26.1886 28.4819 26.2188C28.4457 26.2436 28.4019 26.2549 28.3582 26.2507H2.64819C2.60448 26.2549 2.56069 26.2436 2.52444 26.2188C2.4834 26.1886 2.44894 26.1503 2.42319 26.1063C2.39308 26.054 2.37754 25.9946 2.3782 25.9343C2.37886 25.8739 2.39569 25.8148 2.42694 25.7632L15.2819 3.88758C15.3056 3.8436 15.3406 3.80671 15.3832 3.7807ZM17.3407 2.93695C17.1551 2.61364 16.8875 2.34501 16.5648 2.15821C16.2422 1.97141 15.876 1.87305 15.5032 1.87305C15.1304 1.87305 14.7642 1.97141 14.4416 2.15821C14.1189 2.34501 13.8513 2.61364 13.6657 2.93695L0.808816 24.8126C-0.0480591 26.2713 0.979441 28.1257 2.64632 28.1257H28.3582C30.0251 28.1257 31.0544 26.2695 30.1957 24.8126L17.3407 2.93695Z" fill="#CC7914"/>
<path id="Vector_2" d="M13.6289 22.4996C13.6289 22.2534 13.6774 22.0096 13.7716 21.7821C13.8659 21.5546 14.004 21.3479 14.1781 21.1738C14.3522 20.9997 14.5589 20.8616 14.7864 20.7673C15.0139 20.6731 15.2577 20.6246 15.5039 20.6246C15.7501 20.6246 15.994 20.6731 16.2214 20.7673C16.4489 20.8616 16.6556 20.9997 16.8297 21.1738C17.0038 21.3479 17.142 21.5546 17.2362 21.7821C17.3304 22.0096 17.3789 22.2534 17.3789 22.4996C17.3789 22.9969 17.1814 23.4738 16.8297 23.8254C16.4781 24.1771 16.0012 24.3746 15.5039 24.3746C15.0066 24.3746 14.5297 24.1771 14.1781 23.8254C13.8265 23.4738 13.6289 22.9969 13.6289 22.4996ZM13.8127 11.2402C13.7877 11.0037 13.8127 10.7645 13.8862 10.5383C13.9596 10.312 14.0798 10.1038 14.2389 9.92696C14.398 9.75016 14.5925 9.60879 14.8098 9.51201C15.0271 9.41524 15.2623 9.36523 15.5002 9.36523C15.738 9.36523 15.9732 9.41524 16.1905 9.51201C16.4078 9.60879 16.6023 9.75016 16.7614 9.92696C16.9206 10.1038 17.0407 10.312 17.1142 10.5383C17.1876 10.7645 17.2126 11.0037 17.1877 11.2402L16.5314 17.8159C16.5094 18.0742 16.3912 18.3148 16.2002 18.4902C16.0092 18.6655 15.7594 18.7628 15.5002 18.7628C15.2409 18.7628 14.9911 18.6655 14.8001 18.4902C14.6092 18.3148 14.491 18.0742 14.4689 17.8159L13.8127 11.2402Z" fill="#CC7914"/>
</g>
<defs>
<clipPath id="clip0_3353_10205">
<rect width="30" height="30" fill="white" transform="translate(0.5)"/>
</clipPath>
</defs>
</svg>
