<svg width="20" height="20" viewBox="0 0 20 20" fill="none" xmlns="http://www.w3.org/2000/svg">
<g id="chevron-left 2">
<path id="Vector" fill-rule="evenodd" clip-rule="evenodd" d="M14.1936 2.05666C14.2518 2.11472 14.298 2.18369 14.3295 2.25962C14.361 2.33555 14.3772 2.41696 14.3772 2.49916C14.3772 2.58137 14.361 2.66277 14.3295 2.73871C14.298 2.81464 14.2518 2.88361 14.1936 2.94166L7.13487 9.99916L14.1936 17.0567C14.311 17.174 14.3769 17.3332 14.3769 17.4992C14.3769 17.6651 14.311 17.8243 14.1936 17.9417C14.0763 18.059 13.9171 18.125 13.7511 18.125C13.5851 18.125 13.426 18.059 13.3086 17.9417L5.80862 10.4417C5.75041 10.3836 5.70423 10.3146 5.67273 10.2387C5.64122 10.1628 5.625 10.0814 5.625 9.99916C5.625 9.91695 5.64122 9.83555 5.67273 9.75962C5.70423 9.68369 5.75041 9.61472 5.80862 9.55666L13.3086 2.05666C13.3667 1.99846 13.4356 1.95228 13.5116 1.92077C13.5875 1.88927 13.6689 1.87305 13.7511 1.87305C13.8333 1.87305 13.9147 1.88927 13.9907 1.92077C14.0666 1.95228 14.1356 1.99846 14.1936 2.05666Z" fill="black"/>
</g>
</svg>
