<svg width="31" height="31" viewBox="0 0 31 31" fill="none" xmlns="http://www.w3.org/2000/svg">
<g id="plus 1">
<path id="Vector" d="M15.25 7.75C15.4986 7.75 15.7371 7.84877 15.9129 8.02459C16.0887 8.2004 16.1875 8.43886 16.1875 8.6875V14.3125H21.8125C22.0611 14.3125 22.2996 14.4113 22.4754 14.5871C22.6512 14.7629 22.75 15.0014 22.75 15.25C22.75 15.4986 22.6512 15.7371 22.4754 15.9129C22.2996 16.0887 22.0611 16.1875 21.8125 16.1875H16.1875V21.8125C16.1875 22.0611 16.0887 22.2996 15.9129 22.4754C15.7371 22.6512 15.4986 22.75 15.25 22.75C15.0014 22.75 14.7629 22.6512 14.5871 22.4754C14.4113 22.2996 14.3125 22.0611 14.3125 21.8125V16.1875H8.6875C8.43886 16.1875 8.2004 16.0887 8.02459 15.9129C7.84877 15.7371 7.75 15.4986 7.75 15.25C7.75 15.0014 7.84877 14.7629 8.02459 14.5871C8.2004 14.4113 8.43886 14.3125 8.6875 14.3125H14.3125V8.6875C14.3125 8.43886 14.4113 8.2004 14.5871 8.02459C14.7629 7.84877 15.0014 7.75 15.25 7.75Z" fill="black"/>
</g>
</svg>
