<svg width="319" height="10" viewBox="0 0 319 10" fill="none" xmlns="http://www.w3.org/2000/svg">
<path d="M0 5C0 2.23858 2.23858 0 5 0H34C36.7614 0 39 2.23858 39 5C39 7.76142 36.7614 10 34 10H5C2.23858 10 0 7.76142 0 5Z" fill="#336BAD"/>
<path d="M70 5C70 2.23858 72.2386 0 75 0H104C106.761 0 109 2.23858 109 5C109 7.76142 106.761 10 104 10H75C72.2386 10 70 7.76142 70 5Z" fill="#336BAD"/>
<path d="M140 5C140 2.23858 142.239 0 145 0H174C176.761 0 179 2.23858 179 5C179 7.76142 176.761 10 174 10H145C142.239 10 140 7.76142 140 5Z" fill="#336BAD"/>
<path d="M210 5C210 2.23858 212.239 0 215 0H244C246.761 0 249 2.23858 249 5C249 7.76142 246.761 10 244 10H215C212.239 10 210 7.76142 210 5Z" fill="#E6EEF8"/>
<path d="M280 5C280 2.23858 282.239 0 285 0H314C316.761 0 319 2.23858 319 5C319 7.76142 316.761 10 314 10H285C282.239 10 280 7.76142 280 5Z" fill="#E6EEF8"/>
</svg>
