<svg width="19" height="19" viewBox="0 0 19 19" fill="none" xmlns="http://www.w3.org/2000/svg">
<g id="chevron-right 2">
<path id="Vector" fill-rule="evenodd" clip-rule="evenodd" d="M5.60276 2.1008C5.65501 2.04842 5.71708 2.00686 5.78542 1.9785C5.85376 1.95014 5.92702 1.93555 6.00101 1.93555C6.07499 1.93555 6.14825 1.95014 6.21659 1.9785C6.28493 2.00686 6.347 2.04842 6.39926 2.1008L13.1493 8.8508C13.2016 8.90305 13.2432 8.96513 13.2716 9.03346C13.2999 9.1018 13.3145 9.17506 13.3145 9.24905C13.3145 9.32304 13.2999 9.3963 13.2716 9.46464C13.2432 9.53298 13.2016 9.59505 13.1493 9.6473L6.39926 16.3973C6.29363 16.5029 6.15038 16.5623 6.00101 16.5623C5.85163 16.5623 5.70838 16.5029 5.60276 16.3973C5.49713 16.2917 5.43779 16.1484 5.43779 15.9991C5.43779 15.8497 5.49713 15.7064 5.60276 15.6008L11.9556 9.24905L5.60276 2.8973C5.55037 2.84505 5.50881 2.78298 5.48045 2.71464C5.4521 2.6463 5.4375 2.57304 5.4375 2.49905C5.4375 2.42506 5.4521 2.3518 5.48045 2.28346C5.50881 2.21513 5.55037 2.15305 5.60276 2.1008Z" fill="#FAFAFA"/>
</g>
</svg>
